<!DOCTYPE svg PUBLIC "-//W3C//DTD SVG 1.1//EN" "http://www.w3.org/Graphics/SVG/1.1/DTD/svg11.dtd">
<!-- Uploaded to: SVG Repo, www.svgrepo.com, Transformed by: SVG Repo Mixer Tools -->
<svg width="800px" height="800px" viewBox="0 0 48 48" fill="none" xmlns="http://www.w3.org/2000/svg">
<g id="SVGRepo_bgCarrier" stroke-width="0"/>
<g id="SVGRepo_tracerCarrier" stroke-linecap="round" stroke-linejoin="round"/>
<g id="SVGRepo_iconCarrier"> <rect width="48" height="48" fill="white" fill-opacity="0.01"/> <path d="M8 40H40V24H8V40Z" fill="#bfd1e8"/> <path d="M40 40H8M40 40H4H8M40 40H44M40 40V24H8V40" stroke="#3688FF" stroke-width="4" stroke-linecap="round" stroke-linejoin="round"/> <path d="M40 34L36 32L32 34L28 32L24 34L20 32L16 34L12 32L8 34" stroke="white" stroke-width="4" stroke-linecap="round" stroke-linejoin="round"/> <path d="M32 24V15" stroke="#3688FF" stroke-width="4" stroke-linecap="round" stroke-linejoin="round"/> <path d="M24 24V15" stroke="#3688FF" stroke-width="4" stroke-linecap="round" stroke-linejoin="round"/> <path d="M16 24V15" stroke="#3688FF" stroke-width="4" stroke-linecap="round" stroke-linejoin="round"/> <path d="M32 10V8" stroke="#3688FF" stroke-width="4" stroke-linecap="round" stroke-linejoin="round"/> <path d="M24 10V8" stroke="#3688FF" stroke-width="4" stroke-linecap="round" stroke-linejoin="round"/> <path d="M16 10V8" stroke="#3688FF" stroke-width="4" stroke-linecap="round" stroke-linejoin="round"/> <path d="M8 24V40" stroke="#3688FF" stroke-width="4" stroke-linecap="round" stroke-linejoin="round"/> <path d="M40 24V40" stroke="#3688FF" stroke-width="4" stroke-linecap="round" stroke-linejoin="round"/> </g>
</svg>